# xmcd
#
# Track frame offsets: 
#        150
#        15455
#        27242
#        40862
#        53822
#        66972
#        78802
#        90349
#        99861
#        112745
#        125083
#        137458
#        153033
#        168840
#        181655
#        193505
#        205690
#        217460
#        230392
#        241530
#        250760
#        267395
#        284555
#        302550
#
# Disc length: 4284 seconds
#
# Revision: 0
# Processed by: cddbd v1.5.2PL0 Copyright (c) Steve Scherf et al.
# Submitted via: ExactAudioCopy v0.95b4
#
DISCID=2e10ba18
DTITLE=Various Artist - Billboard 1966
DYEAR=2000
DGENRE=Other
TTITLE0=The Rolling Stones - Paint It Black
TTITLE1=The Beatles - Yellow Submarine
TTITLE2=Percy Sledge - When a Man Loves a Woman
TTITLE3=The Hollies - Bus Stop
TTITLE4=Diana Ross - You Can't Hurry Love
TTITLE5=Frank Sinatra - Strangers in the Night
TTITLE6=Neil Diamond - Solitary Man
TTITLE7=Janis Joplin - Down on Me
TTITLE8=The Turtles - Happy Together
TTITLE9=Lulu - To Sir, with Love
TTITLE10=The Platters - Twilight Time
TTITLE11=Tom Jones - Delilah
TTITLE12=Jimmi Hendrix - Hey Joe
TTITLE13=The Beach Boys - God Only Knows
TTITLE14=George Harrison - Taxman
TTITLE15=The Beatles - MIchelle
TTITLE16=Frankie Valli and The Four Seasons - Tell It To the Rain
TTITLE17=Tommy James and the Shondells - Hanky Panky
TTITLE18=John Mayall and Eric Clapton - Steppin' Out
TTITLE19=The Ventures - Secret Agent Man
TTITLE20=The Guess Who - No Time
TTITLE21=Three Dog Night - Never Been to Spain
TTITLE22=Iron Butterfly - In-A-Gadda-Da-Vida
TTITLE23=Traffic - Dear Mr. Fantasy
EXTD=
EXTT0=
EXTT1=
EXTT2=
EXTT3=
EXTT4=
EXTT5=
EXTT6=
EXTT7=
EXTT8=
EXTT9=
EXTT10=
EXTT11=
EXTT12=
EXTT13=
EXTT14=
EXTT15=
EXTT16=
EXTT17=
EXTT18=
EXTT19=
EXTT20=
EXTT21=
EXTT22=
EXTT23=
PLAYORDER=
